# xmcd CD database file
#
# Track frame offsets:
#	180
#	19423
#	39869
#	63363
#	82169
#	90927
#	110156
#	131181
#	149073
#	164288
#
# Disc length: 2417 seconds
#
# Revision: 0
# Processed by: cddbd v1.4PL0 Copyright (c) Steve Scherf et al.
# Submitted via: CDex 1.50beta10
#
DISCID=8c096f0a
DTITLE=Vladimir Zinkovsky - Fair Wind
DYEAR=1996
DGENRE=Jazz
TTITLE0=Fair Wind
TTITLE1=Smooth Keys
TTITLE2=Forget
TTITLE3=XL Soul
TTITLE4=Gust
TTITLE5=Sign of Respect
TTITLE6=Night Sky
TTITLE7=Quiet Stream
TTITLE8=Sad Canvas
TTITLE9=Until Then
EXTD=YEAR: 1996
EXTT0=
EXTT1=
EXTT2=
EXTT3=
EXTT4=
EXTT5=
EXTT6=
EXTT7=
EXTT8=
EXTT9=
PLAYORDER=
